#!OML:ASF F:\VICON\USERDATA\INSTALL\rory3\rory3.ASF
:FULLY-SPECIFIED
:DEGREES
1372
root 2.47624 19.2066 2.58594 -329.231 -68.9396 347.191
lowerback -4.85886 5.55513 7.29535
upperback -8.40342 7.17892 1.53497
thorax -5.40733 3.10926 -2.3712
lowerneck -6.2628 17.1891 8.82041
upperneck 20.6344 25.1957 -11.3324
head 10.2015 11.4223 -2.09973
rclavicle -3.27498e-014 2.94201e-014
rhumerus -129.435 -58.0836 108.156
rradius 13.0971
rwrist 107.529
rhand -12.8348 9.1234
rfingers 7.12502
rthumb 13.2525 -20.4353
lclavicle -3.27498e-014 2.94201e-014
lhumerus -19.1263 -8.6401 28.4585
lradius 13.7444
lwrist -49.0152
lhand -9.69749 28.8158
lfingers 7.12502
lthumb 16.2749 58.1527
rfemur -216.936 -195.782 200.418
rtibia 44.497
rfoot 163.856 -210.179
rtoes 55.2161
lfemur -37.9514 -0.475924 -19.5431
ltibia 40.5567
lfoot 18.9621 31.0139
ltoes 24.958
1373
root 2.4981 19.246 2.70829 -330.16 -66.6147 347.712
lowerback -4.21567 4.95271 7.45685
upperback -8.41654 6.46186 1.80825
thorax -5.86695 2.73488 -2.25392
lowerneck -5.72367 17.0165 8.65496
upperneck 20.3954 25.0014 -11.5478
head 10.0057 11.3435 -2.24018
rclavicle -3.33089e-014 -4.13472e-014
rhumerus -128.245 -58.5908 108.436
rradius 13.0728
rwrist 106.627
rhand -12.3046 8.90426
rfingers 7.12502
rthumb 13.7635 -20.6205
lclavicle -3.33089e-014 -4.13472e-014
lhumerus -19.7752 -7.58643 26.9251
lradius 13.6343
lwrist -51.5179
lhand -9.48415 28.7946
lfingers 7.12502
lthumb 16.4803 58.1146
rfemur -216.597 -195.99 201.715
rtibia 44.4359
rfoot 165.101 -210.166
rtoes 53.5648
lfemur -37.9971 -0.353232 -18.3792
ltibia 40.8889
lfoot 26.5036 31.8574
ltoes 38.7796
1374
root 2.53054 19.3011 2.86967 -337.787 -65.8695 356.101
lowerback -4.0807 4.27275 4.40869
upperback -8.36792 5.56449 0.891971
thorax -6.11903 2.45055 -1.56542
lowerneck -5.87884 16.929 8.38481
upperneck 20.3892 24.8485 -11.3495
head 9.94828 11.2672 -2.16009
rclavicle -4.39935e-014 -1.35174e-014
rhumerus -128.339 -58.6563 109.813
rradius 13.1899
rwrist 106.475
rhand -11.8271 8.75912
rfingers 7.12502
rthumb 14.2236 -20.7338
lclavicle -4.39935e-014 -1.35174e-014
lhumerus -20.4706 -7.9318 25.6953
lradius 13.5798
lwrist -52.1918
lhand -9.12867 28.8339
lfingers 7.12502
lthumb 16.8226 58.1252
rfemur -217.039 -194.868 198.773
rtibia 44.5792
rfoot 166.988 -209.134
rtoes 52.4592
lfemur -38.1919 -1.31363 -21.1054
ltibia 40.7629
lfoot 21.4624 33.8165
ltoes 17.2572
1375
root 2.55967 19.3496 3.00987 -341.768 -64.3184 359.953
lowerback -3.28045 3.68072 2.88674
upperback -8.1192 4.81207 0.509194
thorax -6.42594 2.16267 -1.17218
lowerneck -6.18672 16.881 8.12864
upperneck 20.5201 24.7625 -11.1307
head 9.97483 11.209 -2.04566
rclavicle 2.59228e-014 2.38542e-015
rhumerus -125.596 -59.679 107.941
rradius 13.1401
rwrist 104.295
rhand -11.5292 7.89234
rfingers 7.12502
rthumb 14.5107 -21.5802
lclavicle 2.59228e-014 2.38542e-015
lhumerus -21.1385 -9.20673 24.8437
lradius 13.589
lwrist -51.7852
lhand -8.69546 28.9559
lfingers 7.12502
lthumb 17.2396 58.2112
rfemur -216.664 -194.562 197.799
rtibia 44.6148
rfoot 167.633 -208.023
rtoes 51.895
lfemur -37.9701 -2.43119 -21.6593
ltibia 40.4919
lfoot 17.8292 37.0417
ltoes 21.719
1376
root 2.5721 19.3842 3.18537 -343.994 -62.881 361.87
lowerback -2.9743 3.49291 2.47879
upperback -7.72259 4.56627 0.174702
thorax -6.18415 2.07066 -1.29627
lowerneck -6.65331 16.6324 7.32568
upperneck 20.7273 24.3911 -10.6016
head 9.91073 11.0022 -1.8044
rclavicle 1.13024e-014 -5.56597e-015
rhumerus -122.555 -60.1494 106.145
rradius 13.2214
rwrist 102.48
rhand -11.3006 7.08864
rfingers 7.12502
rthumb 14.7309 -22.3679
lclavicle 1.13024e-014 -5.56597e-015
lhumerus -21.6522 -12.6051 24.9258
lradius 13.7345
lwrist -49.7316
lhand -8.38969 29.2435
lfingers 7.12502
lthumb 17.5338 58.4728
rfemur -216.06 -193.619 197.636
rtibia 44.7202
rfoot 170.264 -206.543
rtoes 50.1251
lfemur -37.4422 -3.05804 -21.6219
ltibia 39.9689
lfoot 18.6014 37.0764
ltoes 18.9555
